<mxfile host="app.diagrams.net" modified="2024-04-09T13:42:01.558Z" agent="Mozilla/5.0 (Windows NT 10.0; Win64; x64) AppleWebKit/537.36 (KHTML, like Gecko) Chrome/123.0.0.0 Safari/537.36" etag="Pf5G1DcEReSYuu7-qkCz" version="24.2.1" type="device">
  <diagram name="Page-1" id="AR2zvMPss7o4KQHTW9u_">
    <mxGraphModel dx="1839" dy="521" grid="1" gridSize="10" guides="1" tooltips="1" connect="1" arrows="1" fold="1" page="1" pageScale="1" pageWidth="850" pageHeight="1100" math="0" shadow="0">
      <root>
        <mxCell id="0" />
        <mxCell id="1" parent="0" />
        <mxCell id="hpcn8HQ0x-4f0galK7DU-19" style="edgeStyle=orthogonalEdgeStyle;rounded=0;orthogonalLoop=1;jettySize=auto;html=1;entryX=0;entryY=0.5;entryDx=0;entryDy=0;" edge="1" parent="1" source="hpcn8HQ0x-4f0galK7DU-7" target="hpcn8HQ0x-4f0galK7DU-18">
          <mxGeometry relative="1" as="geometry" />
        </mxCell>
        <mxCell id="hpcn8HQ0x-4f0galK7DU-21" value="Image Metrics" style="edgeLabel;html=1;align=center;verticalAlign=middle;resizable=0;points=[];" vertex="1" connectable="0" parent="hpcn8HQ0x-4f0galK7DU-19">
          <mxGeometry x="-0.1275" relative="1" as="geometry">
            <mxPoint as="offset" />
          </mxGeometry>
        </mxCell>
        <mxCell id="hpcn8HQ0x-4f0galK7DU-7" value="Process" style="ellipse;whiteSpace=wrap;html=1;aspect=fixed;" vertex="1" parent="1">
          <mxGeometry x="190" width="80" height="80" as="geometry" />
        </mxCell>
        <mxCell id="hpcn8HQ0x-4f0galK7DU-8" value="Hard Disk" style="html=1;dashed=0;whiteSpace=wrap;shape=partialRectangle;right=0;left=0;" vertex="1" parent="1">
          <mxGeometry y="25" width="110" height="30" as="geometry" />
        </mxCell>
        <mxCell id="hpcn8HQ0x-4f0galK7DU-16" style="edgeStyle=orthogonalEdgeStyle;rounded=0;orthogonalLoop=1;jettySize=auto;html=1;entryX=0;entryY=0.5;entryDx=0;entryDy=0;exitX=1;exitY=0.5;exitDx=0;exitDy=0;" edge="1" parent="1" source="hpcn8HQ0x-4f0galK7DU-8" target="hpcn8HQ0x-4f0galK7DU-7">
          <mxGeometry relative="1" as="geometry">
            <mxPoint x="280" y="10" as="sourcePoint" />
            <mxPoint x="360" y="10" as="targetPoint" />
          </mxGeometry>
        </mxCell>
        <mxCell id="hpcn8HQ0x-4f0galK7DU-17" value="&lt;div&gt;&lt;span style=&quot;background-color: rgb(251, 251, 251); font-size: 12px; text-wrap: wrap;&quot;&gt;Images&lt;/span&gt;&lt;br&gt;&lt;/div&gt;" style="edgeLabel;html=1;align=center;verticalAlign=middle;resizable=0;points=[];" vertex="1" connectable="0" parent="hpcn8HQ0x-4f0galK7DU-16">
          <mxGeometry x="-0.1028" y="-1" relative="1" as="geometry">
            <mxPoint as="offset" />
          </mxGeometry>
        </mxCell>
        <mxCell id="hpcn8HQ0x-4f0galK7DU-18" value="User" style="rounded=0;whiteSpace=wrap;html=1;" vertex="1" parent="1">
          <mxGeometry x="380" y="25" width="80" height="30" as="geometry" />
        </mxCell>
        <mxCell id="hpcn8HQ0x-4f0galK7DU-28" value="YOLO Detect Person" style="ellipse;whiteSpace=wrap;html=1;aspect=fixed;" vertex="1" parent="1">
          <mxGeometry x="210" y="219.91" width="80" height="80" as="geometry" />
        </mxCell>
        <mxCell id="hpcn8HQ0x-4f0galK7DU-29" value="Hard Disk" style="html=1;dashed=0;whiteSpace=wrap;shape=partialRectangle;right=0;left=0;" vertex="1" parent="1">
          <mxGeometry y="244.91" width="110" height="30" as="geometry" />
        </mxCell>
        <mxCell id="hpcn8HQ0x-4f0galK7DU-30" style="edgeStyle=orthogonalEdgeStyle;rounded=0;orthogonalLoop=1;jettySize=auto;html=1;entryX=0;entryY=0.5;entryDx=0;entryDy=0;exitX=1;exitY=0.5;exitDx=0;exitDy=0;" edge="1" source="hpcn8HQ0x-4f0galK7DU-29" target="hpcn8HQ0x-4f0galK7DU-28" parent="1">
          <mxGeometry relative="1" as="geometry">
            <mxPoint x="400" y="369.90999999999997" as="sourcePoint" />
            <mxPoint x="480" y="369.90999999999997" as="targetPoint" />
          </mxGeometry>
        </mxCell>
        <mxCell id="hpcn8HQ0x-4f0galK7DU-31" value="&lt;span style=&quot;font-size: 12px; text-wrap: wrap; background-color: rgb(251, 251, 251);&quot;&gt;Images&lt;/span&gt;" style="edgeLabel;html=1;align=center;verticalAlign=middle;resizable=0;points=[];" vertex="1" connectable="0" parent="hpcn8HQ0x-4f0galK7DU-30">
          <mxGeometry x="-0.1028" y="-1" relative="1" as="geometry">
            <mxPoint as="offset" />
          </mxGeometry>
        </mxCell>
        <mxCell id="hpcn8HQ0x-4f0galK7DU-32" value="User" style="rounded=0;whiteSpace=wrap;html=1;" vertex="1" parent="1">
          <mxGeometry y="289.90999999999997" width="80" height="30" as="geometry" />
        </mxCell>
        <mxCell id="hpcn8HQ0x-4f0galK7DU-33" style="edgeStyle=orthogonalEdgeStyle;rounded=0;orthogonalLoop=1;jettySize=auto;html=1;exitX=1;exitY=0.5;exitDx=0;exitDy=0;entryX=0;entryY=0.5;entryDx=0;entryDy=0;" edge="1" parent="1" source="hpcn8HQ0x-4f0galK7DU-28" target="hpcn8HQ0x-4f0galK7DU-38">
          <mxGeometry relative="1" as="geometry">
            <mxPoint x="400" y="409.9100000000001" as="sourcePoint" />
            <mxPoint x="400" y="219.97" as="targetPoint" />
            <Array as="points" />
          </mxGeometry>
        </mxCell>
        <mxCell id="hpcn8HQ0x-4f0galK7DU-35" value="Cropped Images&amp;nbsp;&lt;div&gt;containg People&lt;/div&gt;" style="edgeLabel;html=1;align=center;verticalAlign=middle;resizable=0;points=[];" vertex="1" connectable="0" parent="hpcn8HQ0x-4f0galK7DU-33">
          <mxGeometry x="-0.1493" y="1" relative="1" as="geometry">
            <mxPoint x="9" y="1" as="offset" />
          </mxGeometry>
        </mxCell>
        <mxCell id="hpcn8HQ0x-4f0galK7DU-34" style="edgeStyle=orthogonalEdgeStyle;rounded=0;orthogonalLoop=1;jettySize=auto;html=1;entryX=0.5;entryY=0;entryDx=0;entryDy=0;exitX=0.5;exitY=1;exitDx=0;exitDy=0;" edge="1" parent="1" source="hpcn8HQ0x-4f0galK7DU-28" target="hpcn8HQ0x-4f0galK7DU-45">
          <mxGeometry relative="1" as="geometry">
            <mxPoint x="670" y="299.90999999999997" as="sourcePoint" />
            <mxPoint x="580" y="409.9100000000001" as="targetPoint" />
            <Array as="points">
              <mxPoint x="250" y="359.90999999999997" />
              <mxPoint x="250" y="359.90999999999997" />
            </Array>
          </mxGeometry>
        </mxCell>
        <mxCell id="hpcn8HQ0x-4f0galK7DU-37" value="&lt;div&gt;Multiple Outputs:&lt;/div&gt;&lt;div&gt;&lt;br&gt;&lt;/div&gt;Space Taken Up&lt;div&gt;Distance From Center&lt;/div&gt;" style="edgeLabel;html=1;align=center;verticalAlign=middle;resizable=0;points=[];" vertex="1" connectable="0" parent="hpcn8HQ0x-4f0galK7DU-34">
          <mxGeometry x="-0.0707" y="-1" relative="1" as="geometry">
            <mxPoint x="1" y="-2" as="offset" />
          </mxGeometry>
        </mxCell>
        <mxCell id="hpcn8HQ0x-4f0galK7DU-39" style="edgeStyle=orthogonalEdgeStyle;rounded=0;orthogonalLoop=1;jettySize=auto;html=1;entryX=1;entryY=0.5;entryDx=0;entryDy=0;exitX=0.5;exitY=1;exitDx=0;exitDy=0;" edge="1" parent="1" source="hpcn8HQ0x-4f0galK7DU-38" target="hpcn8HQ0x-4f0galK7DU-45">
          <mxGeometry relative="1" as="geometry">
            <mxPoint x="410" y="449.9100000000001" as="targetPoint" />
            <Array as="points">
              <mxPoint x="450" y="429.97" />
            </Array>
          </mxGeometry>
        </mxCell>
        <mxCell id="hpcn8HQ0x-4f0galK7DU-42" value="Image Annotations" style="edgeLabel;html=1;align=center;verticalAlign=middle;resizable=0;points=[];" vertex="1" connectable="0" parent="hpcn8HQ0x-4f0galK7DU-39">
          <mxGeometry x="-0.1009" y="1" relative="1" as="geometry">
            <mxPoint y="-71" as="offset" />
          </mxGeometry>
        </mxCell>
        <mxCell id="hpcn8HQ0x-4f0galK7DU-38" value="Facial Analysis Model" style="ellipse;whiteSpace=wrap;html=1;aspect=fixed;" vertex="1" parent="1">
          <mxGeometry x="410" y="219.91" width="80" height="80" as="geometry" />
        </mxCell>
        <mxCell id="hpcn8HQ0x-4f0galK7DU-64" style="edgeStyle=orthogonalEdgeStyle;rounded=0;orthogonalLoop=1;jettySize=auto;html=1;entryX=1;entryY=0.5;entryDx=0;entryDy=0;exitX=0;exitY=0.5;exitDx=0;exitDy=0;" edge="1" parent="1" source="hpcn8HQ0x-4f0galK7DU-45" target="hpcn8HQ0x-4f0galK7DU-57">
          <mxGeometry relative="1" as="geometry">
            <mxPoint x="810" y="309.90999999999997" as="targetPoint" />
            <Array as="points">
              <mxPoint x="200" y="429.9100000000001" />
              <mxPoint x="200" y="429.9100000000001" />
            </Array>
          </mxGeometry>
        </mxCell>
        <mxCell id="hpcn8HQ0x-4f0galK7DU-65" value="Multiple Outputs:&lt;div&gt;&lt;br&gt;&lt;/div&gt;&lt;div&gt;Count&lt;/div&gt;&lt;div&gt;Shannon Entropy&lt;/div&gt;&lt;div&gt;Simpson Index&lt;/div&gt;&lt;div&gt;Shannone Evenness&lt;/div&gt;&lt;div&gt;Simpson Evenness&lt;/div&gt;&lt;div&gt;Correlation Values&lt;/div&gt;&lt;div&gt;Person Prominance&amp;nbsp;&lt;/div&gt;" style="edgeLabel;html=1;align=center;verticalAlign=middle;resizable=0;points=[];" vertex="1" connectable="0" parent="hpcn8HQ0x-4f0galK7DU-64">
          <mxGeometry x="-0.1522" y="-1" relative="1" as="geometry">
            <mxPoint x="-5" y="1" as="offset" />
          </mxGeometry>
        </mxCell>
        <mxCell id="hpcn8HQ0x-4f0galK7DU-58" style="rounded=0;orthogonalLoop=1;jettySize=auto;html=1;entryX=0.5;entryY=1;entryDx=0;entryDy=0;exitX=0.5;exitY=0;exitDx=0;exitDy=0;edgeStyle=orthogonalEdgeStyle;" edge="1" parent="1" source="hpcn8HQ0x-4f0galK7DU-57" target="hpcn8HQ0x-4f0galK7DU-32">
          <mxGeometry relative="1" as="geometry">
            <mxPoint x="940" y="369.90999999999997" as="sourcePoint" />
            <mxPoint x="1070" y="369.90999999999997" as="targetPoint" />
          </mxGeometry>
        </mxCell>
        <mxCell id="hpcn8HQ0x-4f0galK7DU-59" value="Metric Visualisation&lt;div&gt;&amp;nbsp;Graphs&lt;/div&gt;" style="edgeLabel;html=1;align=center;verticalAlign=middle;resizable=0;points=[];" vertex="1" connectable="0" parent="hpcn8HQ0x-4f0galK7DU-58">
          <mxGeometry x="-0.7799" y="-2" relative="1" as="geometry">
            <mxPoint x="-2" y="-21" as="offset" />
          </mxGeometry>
        </mxCell>
        <mxCell id="hpcn8HQ0x-4f0galK7DU-57" value="Display" style="ellipse;whiteSpace=wrap;html=1;aspect=fixed;" vertex="1" parent="1">
          <mxGeometry y="389.90999999999997" width="80" height="80" as="geometry" />
        </mxCell>
        <mxCell id="hpcn8HQ0x-4f0galK7DU-45" value="Metrics Extraction" style="ellipse;whiteSpace=wrap;html=1;aspect=fixed;" vertex="1" parent="1">
          <mxGeometry x="210" y="389.90999999999997" width="80" height="80" as="geometry" />
        </mxCell>
        <mxCell id="hpcn8HQ0x-4f0galK7DU-72" style="edgeStyle=orthogonalEdgeStyle;rounded=0;orthogonalLoop=1;jettySize=auto;html=1;entryX=0.5;entryY=0;entryDx=0;entryDy=0;exitX=0.5;exitY=0;exitDx=0;exitDy=0;" edge="1" parent="1" source="hpcn8HQ0x-4f0galK7DU-28" target="hpcn8HQ0x-4f0galK7DU-29">
          <mxGeometry relative="1" as="geometry">
            <mxPoint x="300" y="269.90999999999997" as="sourcePoint" />
            <mxPoint x="465" y="269.90999999999997" as="targetPoint" />
            <Array as="points">
              <mxPoint x="250" y="210" />
              <mxPoint x="55" y="210" />
            </Array>
          </mxGeometry>
        </mxCell>
        <mxCell id="hpcn8HQ0x-4f0galK7DU-73" value="Cropped Images&amp;nbsp;&lt;div&gt;containg People&lt;/div&gt;" style="edgeLabel;html=1;align=center;verticalAlign=middle;resizable=0;points=[];" vertex="1" connectable="0" parent="hpcn8HQ0x-4f0galK7DU-72">
          <mxGeometry x="-0.1493" y="1" relative="1" as="geometry">
            <mxPoint x="-2" y="1" as="offset" />
          </mxGeometry>
        </mxCell>
        <mxCell id="hpcn8HQ0x-4f0galK7DU-74" style="edgeStyle=orthogonalEdgeStyle;rounded=0;orthogonalLoop=1;jettySize=auto;html=1;entryX=0.5;entryY=0;entryDx=0;entryDy=0;exitX=0.5;exitY=0;exitDx=0;exitDy=0;" edge="1" parent="1" source="hpcn8HQ0x-4f0galK7DU-28" target="hpcn8HQ0x-4f0galK7DU-29">
          <mxGeometry relative="1" as="geometry">
            <mxPoint x="260" y="309.90999999999997" as="sourcePoint" />
            <mxPoint x="260" y="399.90999999999997" as="targetPoint" />
            <Array as="points">
              <mxPoint x="250" y="160" />
              <mxPoint x="55" y="160" />
            </Array>
          </mxGeometry>
        </mxCell>
        <mxCell id="hpcn8HQ0x-4f0galK7DU-75" value="&lt;div&gt;Multiple Outputs:&lt;/div&gt;&lt;div&gt;&lt;br&gt;&lt;/div&gt;Space Taken Up&lt;div&gt;Distance From Center&lt;/div&gt;" style="edgeLabel;html=1;align=center;verticalAlign=middle;resizable=0;points=[];" vertex="1" connectable="0" parent="hpcn8HQ0x-4f0galK7DU-74">
          <mxGeometry x="-0.0707" y="-1" relative="1" as="geometry">
            <mxPoint x="1" y="-2" as="offset" />
          </mxGeometry>
        </mxCell>
        <mxCell id="hpcn8HQ0x-4f0galK7DU-78" style="edgeStyle=orthogonalEdgeStyle;rounded=0;orthogonalLoop=1;jettySize=auto;html=1;entryX=0.5;entryY=0;entryDx=0;entryDy=0;exitX=0.5;exitY=0;exitDx=0;exitDy=0;" edge="1" parent="1" source="hpcn8HQ0x-4f0galK7DU-38" target="hpcn8HQ0x-4f0galK7DU-29">
          <mxGeometry relative="1" as="geometry">
            <mxPoint x="470" y="409.9100000000001" as="targetPoint" />
            <mxPoint x="675" y="279.90999999999997" as="sourcePoint" />
            <Array as="points">
              <mxPoint x="450" y="120" />
              <mxPoint x="55" y="120" />
            </Array>
          </mxGeometry>
        </mxCell>
        <mxCell id="hpcn8HQ0x-4f0galK7DU-79" value="Image Annotations" style="edgeLabel;html=1;align=center;verticalAlign=middle;resizable=0;points=[];" vertex="1" connectable="0" parent="hpcn8HQ0x-4f0galK7DU-78">
          <mxGeometry x="-0.1009" y="1" relative="1" as="geometry">
            <mxPoint x="-16" y="-1" as="offset" />
          </mxGeometry>
        </mxCell>
      </root>
    </mxGraphModel>
  </diagram>
</mxfile>
